<svg id="Layer_1" data-name="Layer 1" xmlns="http://www.w3.org/2000/svg" viewBox="0 0 646.7 64.99"><path d="M131.17,421H109v-1.27h-1.79v-2.52h8.37a1.23,1.23,0,0,0,1.19-1.27V395.74a1.23,1.23,0,0,0-1.19-1.26H90.5a1.24,1.24,0,0,0-1.2,1.26V416a1.24,1.24,0,0,0,1.2,1.27h8.37v2.52H97.08V421H75a1.22,1.22,0,0,0-1.19,1.26v4.42A1.23,1.23,0,0,0,75,428h1.8v22.73h2.39V428H127v22.73h2.39V428h1.8a1.23,1.23,0,0,0,1.19-1.27v-4.42A1.22,1.22,0,0,0,131.17,421ZM91.7,397h22.72v12H91.7Zm0,17.68v-3.16h22.72v3.16Zm13.15,2.53v2.52h-3.59v-2.52ZM130,425.43H76.15v-1.9H130Z" transform="translate(-73.76 -390.96)"/><polygon points="6.58 40.78 7.78 40.78 7.78 59.73 10.17 59.73 10.17 40.78 48.44 40.78 48.44 59.73 50.83 59.73 50.83 40.78 52.03 40.78 52.03 38.26 6.58 38.26 6.58 40.78"/><path d="M198.23,391H142.16a1.24,1.24,0,0,0-1.2,1.27v54.42a1.23,1.23,0,0,0,1.2,1.26h1.19v3.8a1.23,1.23,0,0,0,1.19,1.27h51.31a1.24,1.24,0,0,0,1.19-1.27v-3.8h1.19a1.22,1.22,0,0,0,1.19-1.26V392.23A1.23,1.23,0,0,0,198.23,391Zm-54.88,54.42V397.92H169v47.46Zm51.3,5.06H145.73v-2.53h48.92Zm2.39-5.06H171.39v-7.59H197Zm0-10.12H171.39V408.68h5.12a4.88,4.88,0,0,1-.31.72,3.8,3.8,0,0,1-3.62,1.81v2.53a6.07,6.07,0,0,0,5.37-2.57,6.07,6.07,0,0,0,5.37,2.57v-2.53a3.8,3.8,0,0,1-3.62-1.81,4.08,4.08,0,0,1-.32-.72H189a4.88,4.88,0,0,1-.31.72,3.81,3.81,0,0,1-3.62,1.81v2.53a6.07,6.07,0,0,0,5.37-2.57,6.07,6.07,0,0,0,5.37,2.57v-2.53a3.8,3.8,0,0,1-3.62-1.81,4.08,4.08,0,0,1-.32-.72H197Zm-25.65-29.11v-1.27h5.37v1.27Zm7.75,0v-1.27h10.14v1.27Zm17.9,0h-5.37v-1.27H197Zm0-3.8H171.39v-4.43H197Zm0-7H143.35v-1.9H197Z" transform="translate(-73.76 -390.96)"/><rect x="89.88" y="26.58" width="2.39" height="6.33"/><rect x="108.97" y="49.36" width="3.58" height="2.53"/><path d="M145.73,401.72v3.16h2.39V403h1.79v-2.53h-3A1.24,1.24,0,0,0,145.73,401.72Z" transform="translate(-73.76 -390.96)"/><path d="M148.12,438.42h-2.39v3.17a1.24,1.24,0,0,0,1.2,1.26h3v-2.53h-1.79Z" transform="translate(-73.76 -390.96)"/><path d="M266.65,429.52a1.93,1.93,0,0,0-1.23-.4h-7.07V412.45h3.92c.87,0,1.58-.47,1.58-1v-7.3c0-1.15-1.41-2.08-3.15-2.08H224.59c-1.73,0-3.14.93-3.14,2.08v7.3c0,.57.7,1,1.57,1H227v16.67h-7.07a2,2,0,0,0-1.24.4.77.77,0,0,0-.28.89l1.57,4.17a1.57,1.57,0,0,0,1.52.79h2.36V452c0,.58.7,1,1.57,1h5.49c.87,0,1.57-.47,1.57-1v-7.29h20.41V452c0,.58.71,1,1.57,1h5.5c.87,0,1.57-.47,1.57-1V435.37h2.36a1.58,1.58,0,0,0,1.52-.79l1.57-4.17A.78.78,0,0,0,266.65,429.52Zm-42.06-19.16v-6.25H260.7v6.25Zm27.48,3.13H233.23c-.87,0-1.57.47-1.57,1v14.59h-1.57V412.45h25.12v16.67h-1.57V414.53C253.64,414,252.94,413.49,252.07,413.49Zm-1.57,2.08v13.55h-6.28V415.57Zm-9.42,0v13.55H234.8V415.57ZM229.3,451H227V435.37h2.35Zm23.55-8.33H232.44v-1.05h20.41Zm0-3.13H232.44v-4.17h20.41Zm5.5,11.46H256V435.37h2.36Zm4.27-17.71H222.68l-.79-2.09H263.4Z" transform="translate(-73.76 -390.96)"/><rect x="167.32" y="15.24" width="3.14" height="2.08"/><rect x="173.6" y="15.24" width="3.14" height="2.08"/><rect x="161.04" y="15.24" width="3.14" height="2.08"/><path d="M409.16,404.88H352.6a1.11,1.11,0,0,0-1.21,1v45.68a1.11,1.11,0,0,0,1.21,1h56.56a1.11,1.11,0,0,0,1.21-1V405.85A1.11,1.11,0,0,0,409.16,404.88ZM408,450.56H353.8V406.83H408Z" transform="translate(-73.76 -390.96)"/><path d="M356.81,449.1H405a1.11,1.11,0,0,0,1.21-1V409.26a1.11,1.11,0,0,0-1.21-1H356.81a1.11,1.11,0,0,0-1.2,1v38.87A1.1,1.1,0,0,0,356.81,449.1Zm9-1.94h-2.41v-7.29h2.41Zm0-9.23h-2.41v-1.46h2.41Zm4.81,9.23h-2.41V436.47h2.41Zm4.81,0h-2.4v-1.94h2.4Zm0-3.89h-2.4v-6.8h2.4Zm22.87,3.89H385.09v-1.94h13.24Zm-14.44-3.89v-1.94h1.81v1.94Zm11.43-3.89h-9v-1.94h9Zm1.81,1.95v1.94h-9v-1.94Zm.6-1.95v-1.94h1.81v1.94ZM358,410.23h45.74v16h-3V414.6a1.1,1.1,0,0,0-1.2-1H385.09a1.1,1.1,0,0,0-1.2,1v11.66h-4.81v-2.91a1.11,1.11,0,0,0-1.21-1v-1.95h1.21a1.1,1.1,0,0,0,1.2-1v-3.89a1.11,1.11,0,0,0-1.2-1H363.43a1.1,1.1,0,0,0-1.2,1v2.92H361a1.1,1.1,0,0,0-1.2,1v3.89a1.11,1.11,0,0,0,1.2,1v1.94h-3Zm40.32,5.34v10.69h-2.4V415.57Zm-7.22,6.81v-6.81h2.41v6.81Zm2.41,1.94v1.94h-2.41v-1.94Zm-7.22-6.8v-1.95h2.4v1.95Zm2.4,1.94v6.8h-2.4v-6.8Zm-26.47,2.92v-1.95h13.23v1.95Zm10.23,1.94v1.94h-9v-1.94Zm-7.83-5.83v-1.95H367v1.95Zm10.23,5.83h1.81v1.94h-1.81Zm-5.41-5.83v-1.95h8.42v1.95ZM358,428.21h45.74v1H358Zm0,2.91h45.74v16h-3v-2.92a1.11,1.11,0,0,0-1.2-1v-1.94h1.2a1.11,1.11,0,0,0,1.2-1v-3.89a1.1,1.1,0,0,0-1.2-1H385.09a1.1,1.1,0,0,0-1.2,1v2.91h-1.2a1.11,1.11,0,0,0-1.21,1v3.88a1.11,1.11,0,0,0,1.21,1v1.94h-4.82V435.5a1.11,1.11,0,0,0-1.2-1H362.23a1.11,1.11,0,0,0-1.21,1v11.66h-3Z" transform="translate(-73.76 -390.96)"/><path d="M508.48,423H462.55v-3.13a3.35,3.35,0,0,0-3.53-3.13H439.59V403.41a3.35,3.35,0,0,0-3.53-3.13H429a3.35,3.35,0,0,0-3.53,3.13V452a1.68,1.68,0,0,0,1.77,1.57h7.06a1.68,1.68,0,0,0,1.77-1.57v-8.61h65.36V452a1.67,1.67,0,0,0,1.76,1.57h7.07A1.68,1.68,0,0,0,512,452V426.11A3.36,3.36,0,0,0,508.48,423Zm-68.89-3.13H459V423H439.59Zm-7.07,30.54H429v-7.05h3.53Zm76,0H505v-7.05h3.53Zm0-10.18H429v-1.57h54.76v-3.13H429v-1.57h79.49Zm0-9.4H429v-27.4h7.07V423h-4.42v3.13h76.84Z" transform="translate(-73.76 -390.96)"/><rect x="412.65" y="44.55" width="3.53" height="3.13"/><rect x="418.83" y="44.55" width="3.53" height="3.13"/><path d="M593.66,421.26H568.08V395.57a1.33,1.33,0,0,0-1.42-1.22H526.87a1.33,1.33,0,0,0-1.42,1.22v57.5a1.33,1.33,0,0,0,1.42,1.22h37.66a1.33,1.33,0,0,0,1.42-1.22V449.4h17v3.67a1.32,1.32,0,0,0,1.42,1.22h5a1.32,1.32,0,0,0,1.42-1.22V449.4h.71a1.34,1.34,0,0,0,1.43-1.22V428h.71a1.34,1.34,0,0,0,1.42-1.22v-4.29A1.34,1.34,0,0,0,593.66,421.26Zm-48.32,30.59H528.29v-10.4h17.05Zm0-12.85H528.29V396.79h17.05Zm12.79,12.85h-9.94V396.79h17v24.47H554.58a1.34,1.34,0,0,0-1.42,1.22v4.29a1.34,1.34,0,0,0,1.42,1.22H556v20.19a1.34,1.34,0,0,0,1.42,1.22h.71Zm5,0H561V449.4h2.14Zm24.86,0h-2.13V449.4H588Zm2.13-4.9H558.84v-8.56H590.1Zm0-11H558.84V428H590.1Zm2.13-10.4H556v-1.83h36.23Z" transform="translate(-73.76 -390.96)"/><rect x="498.59" y="39.48" width="4.26" height="2.45"/><rect x="498.59" y="49.88" width="4.26" height="2.45"/><rect x="477.27" y="22.96" width="2.84" height="4.89"/><rect x="465.9" y="22.96" width="2.84" height="4.89"/><rect x="460.93" y="54.16" width="4.26" height="2.45"/><path d="M719.58,391.6H678.72c-.48,0-.87.58-.87,1.31v55c0,.73.39,1.32.87,1.32h1.74v5.24c0,.72.39,1.31.87,1.31h4.34c.48,0,.87-.59.87-1.31v-5.24h25.22v5.24c0,.72.39,1.31.87,1.31H717c.48,0,.87-.59.87-1.31v-5.24h1.73c.48,0,.87-.59.87-1.32v-55C720.45,392.18,720.06,391.6,719.58,391.6Zm-26.52,2.62h12.18V404.7H693.06Zm-13.47,0h11.74V404.7H679.59Zm5.21,59h-2.6v-3.93h2.6Zm13.48-6.56H679.59V407.33h18.69Zm17.83,6.56H713.5v-3.93h2.61Zm2.61-6.56H700V407.33h18.7Zm0-41.94H707V394.22h11.74Z" transform="translate(-73.76 -390.96)"/><rect x="623.66" y="7.19" width="3.48" height="2.62"/><rect x="636.26" y="7.19" width="3.48" height="2.62"/><rect x="609.74" y="7.19" width="3.48" height="2.62"/><rect x="629.31" y="31.44" width="1.74" height="6.55"/><rect x="619.74" y="31.44" width="1.74" height="6.55"/><path d="M664.05,406.92H610.19a1.09,1.09,0,0,0-1.15,1v4.5a1.08,1.08,0,0,0,1.15,1V455a1.07,1.07,0,0,0,1.15,1h4a1.07,1.07,0,0,0,1.14-1v-4.5h41.26V455a1.07,1.07,0,0,0,1.15,1h4a1.07,1.07,0,0,0,1.14-1V413.42a1.07,1.07,0,0,0,1.15-1v-4.5A1.08,1.08,0,0,0,664.05,406.92ZM614.2,454h-1.72v-3.5h1.72Zm43.55-5.5H616.49v-6h41.26Zm4,5.5H660v-3.5h1.72Zm0-5.5H660v-7a1.08,1.08,0,0,0-1.14-1H615.35a1.08,1.08,0,0,0-1.15,1v7h-1.72V437.94h49.28Zm-45.27-12.51v-6h41.26v6Zm45.27,0H660v-7a1.08,1.08,0,0,0-1.14-1H615.35a1.08,1.08,0,0,0-1.15,1v7h-1.72v-11h49.28Zm-45.27-13v-6h41.26v6Zm45.27,0H660v-7a1.07,1.07,0,0,0-1.14-1H615.35a1.07,1.07,0,0,0-1.15,1v7h-1.72v-9.51h49.28Zm1.15-11.51H611.34v-2.5h51.57Z" transform="translate(-73.76 -390.96)"/><rect x="561.08" y="27.97" width="4.58" height="2"/><rect x="561.08" y="40.98" width="4.58" height="2"/><rect x="561.08" y="53.49" width="4.58" height="2"/><path d="M331.7,405h-6.3V398.5a1.42,1.42,0,0,0-1.4-1.45H287.61a1.42,1.42,0,0,0-1.4,1.45V405h-6.3a2.85,2.85,0,0,0-2.8,2.9v31.2a2.87,2.87,0,0,0,2.1,2.8v12.43a1.42,1.42,0,0,0,1.4,1.46h4.9a1.43,1.43,0,0,0,1.4-1.46v-7.25H324.7v7.25a1.43,1.43,0,0,0,1.4,1.46H331a1.42,1.42,0,0,0,1.4-1.46V441.93a2.87,2.87,0,0,0,2.1-2.8v-31.2A2.85,2.85,0,0,0,331.7,405ZM289,400h15.4v16h2.79V400h15.4v28.29H289Zm-4.9,53H282v-5.8h2.1Zm45.49,0h-2.1v-5.8h2.1Zm0-8.7H282V442H329.6Zm2.1-5.08H279.91v-31.2h6.3v26.12H289v-2.9H322.6v2.9h2.8V407.93h6.3Z" transform="translate(-73.76 -390.96)"/><rect x="217.35" y="11.16" width="2.8" height="2.9"/><rect x="221.55" y="11.16" width="2.8" height="2.9"/><rect x="225.75" y="11.16" width="2.8" height="2.9"/><rect x="217.35" y="15.52" width="2.8" height="2.9"/><rect x="221.55" y="15.52" width="2.8" height="2.9"/><rect x="225.75" y="15.52" width="2.8" height="2.9"/><rect x="217.35" y="19.87" width="2.8" height="2.9"/><rect x="221.55" y="19.87" width="2.8" height="2.9"/><rect x="225.75" y="19.87" width="2.8" height="2.9"/><rect x="217.35" y="24.22" width="2.8" height="2.9"/><rect x="221.55" y="24.22" width="2.8" height="2.9"/><rect x="225.75" y="24.22" width="2.8" height="2.9"/><rect x="235.55" y="11.16" width="2.8" height="2.9"/><rect x="239.75" y="11.16" width="2.8" height="2.9"/><rect x="243.95" y="11.16" width="2.8" height="2.9"/><rect x="235.55" y="15.52" width="2.8" height="2.9"/><rect x="239.75" y="15.52" width="2.8" height="2.9"/><rect x="243.95" y="15.52" width="2.8" height="2.9"/><rect x="235.55" y="19.87" width="2.8" height="2.9"/><rect x="239.75" y="19.87" width="2.8" height="2.9"/><rect x="243.95" y="19.87" width="2.8" height="2.9"/><rect x="235.55" y="24.22" width="2.8" height="2.9"/><rect x="239.75" y="24.22" width="2.8" height="2.9"/><rect x="243.95" y="24.22" width="2.8" height="2.9"/><rect x="217.35" y="30.75" width="29.4" height="2.9"/></svg>