<svg xmlns="http://www.w3.org/2000/svg" viewBox="0 0 600 230.435"><defs><style>.a{fill:#00305b;}.b{fill:#fff;}.c{fill:#a5b0ca;}</style></defs><g transform="translate(-290 -434)"><rect class="a" width="600" height="230.435" transform="translate(290 434)"/><g transform="translate(353.983 509.417)"><g transform="translate(172.132 33.516)"><path class="b" d="M26.9,105.78v16.24H18.5V83.1h8.4V98.22L47.06,83.1H59.1L35.58,101.02l26.04,21H48.74l-20.72-16.8Z" transform="translate(-18.5 -82.82)"/><path class="b" d="M36.2,122.2,56.64,83h7.84L85.2,122.2h-8.96l-4.76-8.4H48.52l-4.2,8.4Zm16.24-15.4h15.68l-8.4-15.96Z" transform="translate(13.359 -83)"/><path class="b" d="M69.2,122.2V83.28h6.16l28.56,25.2V83h9.52v39.2h-7.28L77.32,96.44V122.2Z" transform="translate(72.762 -83)"/><path class="b" d="M92,83h23.8c11.2,0,20.16,6.16,20.16,19.6,0,13.16-8.68,19.6-20.16,19.6H92Zm8.68,31.92h12.04c9.8,0,14.28-2.24,14.28-12.32,0-10.36-4.2-12.32-13.72-12.32h-12.6Z" transform="translate(113.794 -83)"/><path class="b" d="M113.8,122.2V83h8.12v32.48h27.44v6.72Z" transform="translate(153.036 -83)"/><rect class="b" width="8.12" height="38.92" transform="translate(112.835 0.278)"/></g><g transform="translate(0 0)"><path class="c" d="M152.518,52.3l20.16,7.84-54.319,47.88L52,82.82l15.68-14,46.2,17.64Z" transform="translate(-41.637 -2.74)"/><path class="c" d="M150.618,43.4l20.44,7.84L116.739,99.4,50.1,73.92,66.06,60.2l45.919,17.36Z" transform="translate(-45.063 -18.76)"/><path class="c" d="M148.818,34.6l20.16,7.56L114.659,90.32,48.3,65.12l15.4-14,46.2,17.64Z" transform="translate(-48.3 -34.6)"/></g></g></g></svg>