<?xml version="1.0" encoding="utf-8"?>
<!-- Generator: Adobe Illustrator 25.0.0, SVG Export Plug-In . SVG Version: 6.00 Build 0)  -->
<svg version="1.1" id="Layer_1" xmlns="http://www.w3.org/2000/svg" xmlns:xlink="http://www.w3.org/1999/xlink" x="0px" y="0px"
	 viewBox="0 0 218 47" style="enable-background:new 0 0 218 47;" xml:space="preserve">
<style type="text/css">
	.st0{fill:none;}
	.st1{display:none;fill:#ACCE77;}
	.st2{display:none;}
	.st3{display:inline;fill:#FFFFFF;}
	.st4{display:inline;fill:#073577;}
	.st5{fill:none;stroke:#2C546B;stroke-width:5;stroke-linecap:round;stroke-linejoin:round;stroke-miterlimit:10;}
	.st6{display:none;fill:#95C122;}
	.st7{display:none;fill:#C3CFDB;}
	.st8{display:none;fill:none;stroke:#000000;stroke-width:10;stroke-linejoin:round;stroke-miterlimit:10;}
	.st9{display:inline;fill:#ACCE77;}
	.st10{display:inline;opacity:0.7;}
	.st11{display:inline;}
	.st12{fill:#ACCE77;}
	.st13{fill:#A3D755;}
</style>
<rect x="-39" y="-128" class="st0" width="300" height="300"/>
<rect x="-16" y="-126" class="st1" width="300" height="300"/>
<rect x="-39" y="-130" class="st0" width="300" height="300"/>
<g>
	<g class="st2">
		<path class="st3" d="M73.35,56.16c0.65,0,0.97,0.35,0.97,1.04l1.46,33h-2l-1.41-32.3h-1.12L61.13,86.3
			c-0.13,0.46-0.44,0.69-0.93,0.69h-2.53c-0.49,0-0.81-0.23-0.97-0.69L46.62,57.89H45.5l-1.41,32.3h-2l1.41-33
			c0.03-0.69,0.37-1.04,1.02-1.04h2.77c0.49,0,0.79,0.23,0.93,0.69l8.52,23.87c0.29,0.76,0.56,1.52,0.8,2.29
			c0.24,0.77,0.51,1.54,0.8,2.29h1.17c0.26-0.79,0.53-1.57,0.8-2.34c0.28-0.77,0.54-1.55,0.8-2.34l8.47-23.77
			c0.16-0.46,0.49-0.69,0.97-0.69H73.35z"/>
		<path class="st3" d="M88.54,56.16c1.59,0,3.19,0,4.8,0c1.61,0,3.2,0.02,4.8,0.05c1.59,0.03,3.17,0.08,4.72,0.15l-0.1,1.53H88.88
			c-1.1,0-2,0.35-2.68,1.06s-1.02,1.63-1.02,2.79v22.88c0,1.15,0.34,2.08,1.02,2.79s1.57,1.06,2.68,1.06h13.88l0.1,1.53
			c-1.56,0.07-3.13,0.12-4.72,0.15c-1.59,0.03-3.19,0.05-4.8,0.05c-1.61,0-3.21,0-4.8,0c-1.59,0-2.88-0.49-3.87-1.48
			c-0.99-0.99-1.49-2.24-1.49-3.75V61.39c0-1.54,0.49-2.8,1.49-3.77C85.66,56.65,86.95,56.16,88.54,56.16z M84.01,71.16l16.75,0.05
			v1.63l-16.75,0.05V71.16z"/>
		<path class="st3" d="M120.53,55.72c2.3,0,4.24,0.3,5.82,0.91c1.57,0.61,2.85,1.59,3.82,2.96c0.97,1.37,1.69,3.16,2.14,5.38
			c0.45,2.22,0.68,4.96,0.68,8.21c0,3.22-0.23,5.95-0.68,8.19c-0.45,2.24-1.17,4.04-2.14,5.4c-0.97,1.37-2.25,2.35-3.82,2.96
			c-1.57,0.61-3.51,0.91-5.82,0.91c-2.18,0-4.2-0.04-6.06-0.12c-1.87-0.08-3.63-0.19-5.28-0.32l0.92-1.53
			c1.53,0.03,3.13,0.07,4.82,0.1c1.69,0.03,3.55,0.05,5.6,0.05c2.56,0,4.6-0.49,6.11-1.48s2.6-2.62,3.26-4.91
			c0.66-2.29,1-5.37,1-9.25c0-3.88-0.33-6.96-1-9.25c-0.67-2.29-1.75-3.92-3.26-4.91s-3.55-1.48-6.11-1.48
			c-2.04,0-3.91,0.02-5.6,0.05c-1.69,0.03-3.33,0.07-4.92,0.1l-0.83-1.53c1.66-0.13,3.42-0.24,5.31-0.32
			C116.37,55.76,118.38,55.72,120.53,55.72z M111.18,56.16v34.03h-2V56.16H111.18z"/>
		<path class="st3" d="M142.09,56.16v34.03h-2V56.16H142.09z"/>
		<path class="st3" d="M161.47,55.77c2.47,0,4.42,0.3,5.87,0.89s2.49,1.63,3.14,3.11c0.65,1.48,0.97,3.55,0.97,6.21
			c0,2.63-0.32,4.69-0.95,6.17s-1.67,2.51-3.12,3.08c-1.44,0.58-3.38,0.86-5.82,0.86c-1.3,0-2.52-0.01-3.68-0.02
			c-1.15-0.02-2.2-0.06-3.14-0.12s-1.74-0.12-2.39-0.15c-0.65-0.03-1.1-0.08-1.36-0.15l0.15-1.33c1.62,0,3.32,0,5.09,0
			c1.77,0,3.51,0,5.23,0c1.95-0.03,3.5-0.28,4.65-0.74c1.15-0.46,1.99-1.3,2.51-2.51c0.52-1.22,0.78-2.93,0.78-5.13
			c0-2.24-0.26-3.95-0.78-5.15c-0.52-1.2-1.36-2.04-2.51-2.52c-1.15-0.48-2.7-0.71-4.65-0.71c-2.53,0-4.72,0.02-6.55,0.05
			c-1.83,0.03-3.08,0.08-3.72,0.15l-0.68-1.58c1.17-0.13,2.26-0.22,3.29-0.27s2.13-0.08,3.33-0.1S159.78,55.77,161.47,55.77z
			 M152.51,56.16v34.03h-2V56.16H152.51z"/>
	</g>
</g>
<g>
	<g class="st2">
		<path class="st3" d="M236.88,27.41v33.04c0,0.66-0.33,0.99-0.97,0.99h-2.63c-0.26,0-0.48-0.06-0.66-0.17
			c-0.18-0.11-0.33-0.3-0.46-0.57l-14.51-27.82c-0.29-0.56-0.6-1.15-0.92-1.78c-0.32-0.62-0.62-1.25-0.88-1.87h-1.12
			c0.03,0.62,0.05,1.25,0.05,1.87c0,0.62,0,1.23,0,1.83v28.51h-2V28.39c0-0.66,0.32-0.99,0.97-0.99h2.43c0.29,0,0.53,0.06,0.71,0.17
			c0.18,0.12,0.33,0.3,0.46,0.57l14.12,27.18c0.36,0.66,0.72,1.35,1.09,2.07c0.37,0.72,0.74,1.45,1.1,2.17h1.22
			c0-0.79,0-1.57,0-2.34s0-1.54,0-2.29V27.41H236.88z"/>
	</g>
</g>
<g id="svgg" class="st2">
	<path id="path0" class="st4" d="M26.12-76.7C20.83-73.69,9.44-62.28,9.69-60.25c0.56,4.4,3.63,3.17,12.86-5.16l8.35-7.54
		l11.05,9.98L53-52.99l-0.2,9.32l-0.2,9.32l-3.1,0.2c-5.35,0.35-5.91-0.3-6.21-7.24c-0.36-8.36-1.46-9.28-11.23-9.28
		c-9.8,0-10.86,0.99-10.57,9.94l0.21,6.38h2.57h2.57l0.37-5.33L27.59-45h4.41h4.41l0.39,5.66c0.61,8.86,2.67,10.65,12.2,10.65
		c9.72,0,10.58-1.22,10.58-14.98c0-12.06,0.74-10.78-13.79-23.81C32.9-79.05,31.44-79.73,26.12-76.7"/>
</g>
<path class="st5" d="M146.56,17.23l12.02-10.17c1.39-1.19,3.44-1.12,4.74,0.18l15.62,15.63c0.67,0.67,1.05,1.6,1.05,2.56v12.26
	c0,1.98-1.58,3.59-3.52,3.59h-5.47c-1.94,0-3.52-1.61-3.52-3.59v-5.74c0-1.98-1.58-3.59-3.52-3.59h-5.87
	c-1.94,0-3.52,1.61-3.52,3.59v6.1"/>
<path class="st6" d="M111.17-75.17L111.17-75.17c-0.89,1.03-0.77,2.58,0.25,3.47l0.09,0.08c1.03,0.89,2.58,0.78,3.46-0.25h0
	c0.89-1.03,0.77-2.58-0.25-3.47l-0.09-0.08C113.61-76.31,112.06-76.2,111.17-75.17z"/>
<polygon class="st7" points="154.26,40.03 164.37,29.91 174.46,40 "/>
<polyline class="st8" points="169.76,149 169.76,113.25 185,127.5 "/>
<g>
	<g class="st2">
		<path class="st9" d="M68.97,98.14c0.21,0,0.31,0.15,0.31,0.44l0.18,5.9h-0.78l-0.16-5.43H68.4l-0.84,4.25
			c-0.04,0.25-0.15,0.38-0.33,0.38h-0.58c-0.19,0-0.3-0.13-0.35-0.38l-0.84-4.25h-0.12l-0.14,5.43h-0.78l0.18-5.9
			c0.01-0.29,0.11-0.44,0.31-0.44h0.82c0.17,0,0.28,0.13,0.33,0.38l0.69,3.47c0.03,0.15,0.06,0.29,0.08,0.44
			c0.02,0.15,0.04,0.29,0.07,0.44h0.1c0.03-0.15,0.05-0.29,0.07-0.44c0.02-0.15,0.05-0.3,0.07-0.45l0.69-3.46
			c0.04-0.25,0.15-0.38,0.33-0.38H68.97z"/>
		<path class="st9" d="M71.11,98.12c0.23,0,0.46,0,0.7,0c0.24,0,0.47,0.01,0.7,0.02c0.23,0.01,0.45,0.03,0.65,0.05l-0.04,0.85h-1.77
			c-0.12,0-0.21,0.04-0.27,0.13c-0.06,0.09-0.09,0.22-0.09,0.4v3.45c0,0.18,0.03,0.32,0.09,0.4c0.06,0.09,0.15,0.13,0.27,0.13h1.77
			l0.04,0.85c-0.21,0.02-0.42,0.04-0.65,0.05c-0.23,0.01-0.46,0.02-0.7,0.02c-0.24,0-0.47,0-0.7,0c-0.28,0-0.5-0.11-0.67-0.33
			c-0.17-0.22-0.25-0.51-0.26-0.88v-3.97c0-0.37,0.09-0.66,0.26-0.88C70.6,98.23,70.83,98.12,71.11,98.12z M70.29,100.74h2.58v0.85
			h-2.58V100.74z"/>
		<path class="st9" d="M75.48,98.05c0.34,0,0.63,0.05,0.87,0.16s0.43,0.29,0.58,0.53c0.15,0.25,0.25,0.58,0.32,1s0.1,0.94,0.1,1.56
			c0,0.62-0.03,1.14-0.1,1.56c-0.07,0.42-0.17,0.75-0.32,1c-0.15,0.25-0.34,0.43-0.58,0.53s-0.53,0.16-0.87,0.16
			c-0.33,0-0.63-0.01-0.91-0.02c-0.28-0.02-0.54-0.04-0.79-0.06l0.34-0.88c0.17,0.01,0.37,0.02,0.6,0.03
			c0.23,0.01,0.48,0.01,0.76,0.01c0.25,0,0.45-0.07,0.6-0.21c0.15-0.14,0.25-0.38,0.31-0.72c0.06-0.34,0.09-0.81,0.09-1.41
			c0-0.6-0.03-1.07-0.09-1.41c-0.06-0.34-0.16-0.58-0.31-0.72c-0.15-0.14-0.34-0.21-0.6-0.21c-0.27,0-0.51,0-0.72,0.01
			c-0.21,0.01-0.42,0.01-0.62,0.01l-0.36-0.84c0.25-0.02,0.51-0.04,0.79-0.06S75.15,98.05,75.48,98.05z M74.6,98.14v6.34h-0.82
			v-6.34H74.6z"/>
		<path class="st9" d="M78.85,98.14v6.34h-0.82v-6.34H78.85z"/>
		<path class="st9" d="M81.34,98.05c0.4,0,0.71,0.06,0.93,0.18c0.23,0.12,0.39,0.32,0.49,0.62s0.15,0.7,0.15,1.24
			c0,0.53-0.05,0.95-0.14,1.24s-0.25,0.5-0.46,0.62s-0.5,0.17-0.86,0.17c-0.2,0-0.38-0.01-0.57-0.03s-0.35-0.04-0.5-0.07
			c-0.16-0.03-0.29-0.06-0.4-0.1c-0.11-0.03-0.19-0.06-0.23-0.09l0.02-0.62c0.25,0,0.5,0,0.77,0s0.53,0,0.79,0
			c0.19-0.01,0.34-0.04,0.45-0.1s0.19-0.17,0.24-0.33c0.05-0.16,0.07-0.39,0.07-0.69c0-0.3-0.02-0.53-0.07-0.69
			s-0.12-0.28-0.24-0.34s-0.26-0.1-0.45-0.1c-0.38,0-0.71,0-0.99,0.01c-0.27,0.01-0.46,0.01-0.56,0.03l-0.09-0.85
			c0.17-0.02,0.34-0.04,0.49-0.05c0.15-0.01,0.32-0.02,0.5-0.02S81.09,98.05,81.34,98.05z M80.51,98.14v6.34h-0.82v-6.34H80.51z"/>
		<path class="st9" d="M85.47,98.14c0.07,0,0.13,0.03,0.18,0.08c0.05,0.05,0.09,0.13,0.11,0.22l1.37,6.04H86.3l-1.03-4.89
			c-0.02-0.1-0.04-0.2-0.05-0.29c-0.02-0.1-0.03-0.19-0.05-0.28h-0.18c-0.01,0.09-0.03,0.19-0.04,0.28c-0.02,0.1-0.04,0.2-0.06,0.29
			l-1.03,4.89h-0.84l1.37-6.04c0.02-0.09,0.05-0.17,0.11-0.22c0.05-0.06,0.12-0.08,0.19-0.08H85.47z M86.23,101.76v0.9h-2.32v-0.9
			H86.23z"/>
		<path class="st9" d="M91.17,98.14v5.91c0,0.29-0.1,0.43-0.3,0.43h-0.56c-0.09,0-0.16-0.03-0.21-0.09
			c-0.05-0.06-0.09-0.15-0.13-0.26l-1.37-3.82c-0.05-0.13-0.1-0.28-0.15-0.45s-0.09-0.32-0.12-0.46h-0.08
			c0.01,0.15,0.02,0.31,0.02,0.46c0.01,0.16,0.01,0.31,0.01,0.46v4.15h-0.79v-5.91c0-0.29,0.1-0.43,0.3-0.43h0.54
			c0.09,0,0.16,0.03,0.21,0.09c0.05,0.06,0.09,0.15,0.13,0.26l1.33,3.72c0.05,0.13,0.11,0.29,0.16,0.46
			c0.05,0.17,0.11,0.34,0.15,0.51h0.1c-0.01-0.18-0.02-0.35-0.02-0.52c-0.01-0.17-0.01-0.34-0.01-0.5v-4.01H91.17z"/>
	</g>
</g>
<g class="st2">
	<g class="st10">
		<g>
			<g>
				<path d="M206.22-45.74c6.81,0,10.29,3.12,10.43,9.37l5.87,125.32h-25.87l-5.22-115.37h-4.13l-28.04,90.38c-1.3,5.34-5,8-11.09,8
					h-19.13c-6.23,0-10.07-2.67-11.52-8L89.48-26.42h-4.13L80.57,88.95H54.7l5.87-125.32c0.29-6.25,3.77-9.37,10.43-9.37h27.17
					c5.79,0,9.42,2.67,10.87,8l23.04,73.79c1.01,3.12,1.85,6.25,2.5,9.37c0.65,3.12,1.41,6.25,2.28,9.37h3.26
					c0.87-3.12,1.66-6.25,2.39-9.37c0.72-3.12,1.52-6.31,2.39-9.57l23.04-73.59c1.3-5.33,5-8,11.09-8H206.22z"/>
			</g>
		</g>
	</g>
	<g class="st11">
		<g>
			<g>
				<path class="st12" d="M198.22-45.74c6.81,0,10.29,3.12,10.43,9.37l5.87,125.32h-25.87l-5.22-115.37h-4.13l-28.04,90.38
					c-1.3,5.34-5,8-11.09,8h-19.13c-6.23,0-10.07-2.67-11.52-8L81.48-26.42h-4.13L72.57,88.95H46.7l5.87-125.32
					c0.29-6.25,3.77-9.37,10.43-9.37h27.17c5.79,0,9.42,2.67,10.87,8l23.04,73.79c1.01,3.12,1.85,6.25,2.5,9.37
					c0.65,3.12,1.41,6.25,2.28,9.37h3.26c0.87-3.12,1.66-6.25,2.39-9.37c0.72-3.12,1.52-6.31,2.39-9.57l23.04-73.59
					c1.3-5.33,5-8,11.09-8H198.22z"/>
			</g>
		</g>
	</g>
</g>
<g>
	<g>
		<path class="st13" d="M34.48,7.92c1.24,0,1.87,0.7,1.9,2.09l1.33,33.01h-4.66l-1.19-30.97h-0.95l-6.94,25.18
			c-0.25,1.12-0.92,1.68-2,1.68h-3.9c-1.11,0-1.81-0.56-2.09-1.68L9.04,12.04H8.08L6.99,43.01H2.33l1.28-33.01
			c0.06-1.39,0.7-2.09,1.9-2.09h5.14c1.01,0,1.68,0.56,2,1.68l5.75,20.75c0.25,0.78,0.46,1.56,0.62,2.34
			c0.16,0.78,0.35,1.59,0.57,2.44h0.81c0.22-0.85,0.42-1.66,0.59-2.44c0.17-0.78,0.37-1.59,0.59-2.44L27.35,9.6
			c0.25-1.12,0.92-1.68,2-1.68H34.48z"/>
		<path class="st13" d="M51.22,7.87c1.58,0,3.2,0,4.85,0c1.65,0,3.27,0.03,4.87,0.08s3.13,0.13,4.59,0.23l-0.19,3.92H52.27
			c-0.95,0-1.65,0.25-2.09,0.76c-0.44,0.51-0.67,1.32-0.67,2.44v20.34c0,1.12,0.22,1.94,0.67,2.47c0.44,0.53,1.14,0.79,2.09,0.79
			h13.08l0.19,3.87c-1.46,0.1-2.99,0.17-4.59,0.2c-1.6,0.03-3.23,0.06-4.87,0.08c-1.65,0.02-3.27,0.03-4.85,0.03
			c-1.97,0-3.53-0.57-4.68-1.7c-1.16-1.14-1.75-2.65-1.78-4.55V14.13c0.03-1.93,0.63-3.46,1.78-4.58
			C47.69,8.43,49.25,7.87,51.22,7.87z M45.61,22.57h17.88v3.97H45.61V22.57z"/>
		<path class="st13" d="M83.7,7.46c2.41,0,4.45,0.31,6.11,0.92c1.66,0.61,3,1.6,4.02,2.98s1.75,3.22,2.21,5.54
			c0.46,2.32,0.69,5.18,0.69,8.57c0,3.39-0.23,6.25-0.69,8.57c-0.46,2.32-1.2,4.17-2.21,5.54c-1.01,1.37-2.35,2.36-4.02,2.97
			s-3.7,0.92-6.11,0.92c-2.28,0-4.4-0.04-6.35-0.13c-1.95-0.09-3.8-0.2-5.54-0.33l2-4.07c1.33,0.07,2.81,0.13,4.45,0.18
			c1.63,0.05,3.45,0.08,5.45,0.08c2.03,0,3.63-0.42,4.8-1.27c1.17-0.85,2.01-2.26,2.5-4.25c0.49-1.98,0.74-4.72,0.74-8.21
			c0-3.49-0.25-6.23-0.74-8.21c-0.49-1.98-1.32-3.4-2.5-4.25c-1.17-0.85-2.77-1.27-4.8-1.27c-1.97,0-3.73,0.01-5.28,0.03
			c-1.55,0.02-3.08,0.04-4.57,0.08l-2.04-3.92c1.74-0.14,3.59-0.25,5.54-0.33C79.3,7.51,81.42,7.46,83.7,7.46z M76.57,7.92v35.09
			h-4.76V7.92H76.57z"/>
		<path class="st13" d="M108.29,7.92v35.09h-4.76V7.92H108.29z"/>
		<path class="st13" d="M127.79,7.46c2.7,0,4.83,0.32,6.42,0.97c1.58,0.64,2.72,1.76,3.4,3.36c0.68,1.59,1.02,3.85,1.02,6.76
			c0,2.88-0.33,5.13-1,6.74c-0.67,1.61-1.75,2.73-3.26,3.36c-1.51,0.63-3.51,0.94-6.02,0.94c-1.36,0-2.67-0.03-3.92-0.1
			c-1.25-0.07-2.4-0.17-3.45-0.31c-1.05-0.14-1.94-0.28-2.69-0.43c-0.75-0.15-1.26-0.3-1.55-0.43l0.14-2.95c1.71,0,3.49,0,5.33,0
			s3.68,0,5.52,0c1.52-0.03,2.73-0.24,3.61-0.61c0.89-0.37,1.52-1.05,1.9-2.03c0.38-0.98,0.57-2.37,0.57-4.17
			c0-1.83-0.19-3.24-0.57-4.22c-0.38-0.98-1.02-1.67-1.9-2.06c-0.89-0.39-2.09-0.58-3.61-0.58c-2.66,0-4.96,0.02-6.9,0.05
			c-1.93,0.03-3.23,0.08-3.9,0.15l-0.67-3.97c1.2-0.14,2.35-0.24,3.42-0.31c1.08-0.07,2.25-0.11,3.52-0.13
			C124.49,7.47,126.01,7.46,127.79,7.46z M121.04,7.92v35.09h-4.76V7.92H121.04z"/>
	</g>
</g>
<g>
	<g>
		<path class="st13" d="M214.59,5.88v33.11c0,1.32-0.6,1.98-1.79,1.98h-4.15c-0.55,0-0.97-0.13-1.28-0.41
			c-0.31-0.27-0.57-0.66-0.8-1.17l-10.9-23.7c-0.29-0.68-0.63-1.45-1.01-2.31c-0.39-0.86-0.67-1.67-0.87-2.42h-0.72
			c0.06,0.78,0.11,1.57,0.14,2.37c0.03,0.8,0.05,1.6,0.05,2.42v25.23h-4.73V7.87c0-1.32,0.61-1.98,1.83-1.98h4
			c0.55,0,0.98,0.14,1.3,0.41c0.32,0.27,0.59,0.66,0.82,1.17l10.52,23.09c0.35,0.71,0.73,1.53,1.13,2.44c0.4,0.92,0.8,1.81,1.18,2.7
			h0.77c-0.06-0.92-0.11-1.82-0.14-2.72c-0.03-0.9-0.05-1.79-0.05-2.67V5.88H214.59z"/>
	</g>
</g>
</svg>
