<svg id="Layer_1" data-name="Layer 1" xmlns="http://www.w3.org/2000/svg" viewBox="0 0 300 300"><defs><style>.cls-1,.cls-2{fill:none;}.cls-2{stroke:#2c546b;stroke-linecap:round;stroke-linejoin:round;stroke-width:3px;}.cls-3{fill:#a3d755;}</style></defs><rect class="cls-1" width="300" height="300"/><path class="cls-2" d="M143.56,13.23l12-10.17a3.47,3.47,0,0,1,4.74.18L176,18.87A3.62,3.62,0,0,1,177,21.43V33.69a3.56,3.56,0,0,1-3.52,3.59H168a3.56,3.56,0,0,1-3.52-3.59V28A3.56,3.56,0,0,0,161,24.36H155.1A3.56,3.56,0,0,0,151.58,28v6.1" transform="translate(39 132)"/><path class="cls-3" d="M33.86,3.92c.89,0,1.33.49,1.33,1.48L36.62,39H33.48L32.2,6.72H31.15L22.59,34.23a1.31,1.31,0,0,1-1.38,1.12H18.07a1.37,1.37,0,0,1-1.42-1.12L8.13,6.72h-1L5.85,39H2.71L4,5.4c.06-1,.54-1.48,1.43-1.48H9.23a1.31,1.31,0,0,1,1.33,1.17L17.74,28c.28.78.53,1.57.74,2.36s.43,1.61.69,2.42h1c.23-.81.45-1.62.67-2.42s.46-1.62.71-2.46L28.73,5.09A1.32,1.32,0,0,1,30.1,3.92Z" transform="translate(39 132)"/><path class="cls-3" d="M50.27,3.87H55c1.58,0,3.16,0,4.73.08s3.1.12,4.59.23l-.14,2.59H50.79a3.08,3.08,0,0,0-2.4.91,3.86,3.86,0,0,0-.83,2.7V32.56a4,4,0,0,0,.83,2.72,3.06,3.06,0,0,0,2.4.94H64.16l.14,2.54c-1.49.1-3,.17-4.59.2S56.56,39,55,39l-4.71,0a5.49,5.49,0,0,1-5.8-5.8V9.67a5.68,5.68,0,0,1,1.59-4.22A5.72,5.72,0,0,1,50.27,3.87ZM45.27,19h17v2.69h-17Z" transform="translate(39 132)"/><path class="cls-3" d="M82.66,3.46a16,16,0,0,1,5.8.94,8.44,8.44,0,0,1,3.85,3A14.2,14.2,0,0,1,94.45,13a46.23,46.23,0,0,1,.67,8.5A46.11,46.11,0,0,1,94.45,30a14.07,14.07,0,0,1-2.14,5.54,8.38,8.38,0,0,1-3.85,3,15.77,15.77,0,0,1-5.8.94q-3.33,0-6.14-.12c-1.87-.09-3.63-.2-5.28-.34l1.38-2.64,4.54.1c1.64,0,3.47.05,5.5.05a9.35,9.35,0,0,0,5.44-1.4,7.88,7.88,0,0,0,2.9-4.7,36.07,36.07,0,0,0,.88-9A36,36,0,0,0,91,12.52a8,8,0,0,0-2.9-4.73,9.28,9.28,0,0,0-5.44-1.43c-2,0-3.81,0-5.43,0s-3.17.09-4.66.16L71.24,3.92c1.65-.13,3.42-.24,5.3-.33S80.47,3.46,82.66,3.46Zm-8.33.46V39H71.24V3.92Z" transform="translate(39 132)"/><path class="cls-3" d="M105.82,3.92V39h-3.09V3.92Z" transform="translate(39 132)"/><path class="cls-3" d="M125.65,3.46a15.44,15.44,0,0,1,6,1,5.94,5.94,0,0,1,3.21,3.28,17.36,17.36,0,0,1,1,6.54,18.09,18.09,0,0,1-1,6.56,5.71,5.71,0,0,1-3.12,3.25,15.22,15.22,0,0,1-5.83.92c-1.3,0-2.53,0-3.71-.08s-2.24-.12-3.21-.2-1.79-.18-2.47-.28a13.1,13.1,0,0,1-1.4-.26l.14-2.08H125.6a11.51,11.51,0,0,0,4.16-.71A4,4,0,0,0,132,19a13.31,13.31,0,0,0,.67-4.75A13.53,13.53,0,0,0,132,9.41a4,4,0,0,0-2.21-2.34,10.8,10.8,0,0,0-4.16-.66c-2.54,0-4.72,0-6.56,0s-3.08.06-3.71.13l-.67-2.65c1.17-.13,2.27-.24,3.28-.3s2.13-.11,3.33-.13S123.94,3.46,125.65,3.46Zm-7.9.46V39h-3.09V3.92Z" transform="translate(39 132)"/><path class="cls-3" d="M210.72,1.88V35.55c0,1-.43,1.43-1.3,1.43H206a1.54,1.54,0,0,1-.94-.28,2.11,2.11,0,0,1-.6-.84L191.76,9.21c-.29-.65-.61-1.35-1-2.11A21.68,21.68,0,0,1,189.93,5H189c0,.68.06,1.37.07,2.08s0,1.43,0,2.14V37H186V3.31c0-1,.45-1.43,1.35-1.43h3.24a1.56,1.56,0,0,1,.94.28,2.11,2.11,0,0,1,.6.84l12.35,26,1.11,2.29c.39.82.75,1.63,1.11,2.44h1c0-.84,0-1.69-.05-2.54s0-1.68,0-2.49V1.88Z" transform="translate(39 132)"/></svg>