<svg id="Layer_1" data-name="Layer 1" xmlns="http://www.w3.org/2000/svg" viewBox="0 0 300 300"><defs><style>.cls-1,.cls-2{fill:none;}.cls-2{stroke:#2c546b;stroke-linecap:round;stroke-linejoin:round;stroke-width:3px;}.cls-3{fill:#a3d755;}</style></defs><rect class="cls-1" width="300" height="300"/><path class="cls-2" d="M182.56,145.23l12-10.17a3.47,3.47,0,0,1,4.74.18L215,150.87a3.62,3.62,0,0,1,1.05,2.56v12.26a3.56,3.56,0,0,1-3.52,3.59H207a3.56,3.56,0,0,1-3.52-3.59V160a3.56,3.56,0,0,0-3.52-3.59H194.1a3.56,3.56,0,0,0-3.52,3.59v6.1"/><path class="cls-3" d="M72.86,135.92c.89,0,1.33.49,1.33,1.48L75.62,171H72.48L71.2,138.72h-1l-8.56,27.51a1.31,1.31,0,0,1-1.38,1.12H57.07a1.37,1.37,0,0,1-1.42-1.12l-8.52-27.51h-1L44.85,171H41.71L43,137.4c.06-1,.54-1.48,1.43-1.48h3.76a1.31,1.31,0,0,1,1.33,1.17L56.74,160c.28.78.53,1.57.74,2.36s.43,1.61.69,2.42h1c.23-.81.45-1.62.67-2.42s.46-1.62.71-2.46l7.19-22.79a1.32,1.32,0,0,1,1.37-1.17Z"/><path class="cls-3" d="M89.27,135.87H94c1.58,0,3.16,0,4.73.08s3.1.12,4.59.23l-.14,2.59H89.79a3.08,3.08,0,0,0-2.4.91,3.86,3.86,0,0,0-.83,2.7v22.18a4,4,0,0,0,.83,2.72,3.06,3.06,0,0,0,2.4.94h13.37l.14,2.54c-1.49.1-3,.17-4.59.2S95.56,171,94,171l-4.71,0a5.49,5.49,0,0,1-5.8-5.8v-23.6a5.45,5.45,0,0,1,5.8-5.8Zm-5,15.16h17v2.69h-17Z"/><path class="cls-3" d="M121.66,135.46a16,16,0,0,1,5.8.94,8.44,8.44,0,0,1,3.85,3,14.2,14.2,0,0,1,2.14,5.54,54.19,54.19,0,0,1,0,17,14.07,14.07,0,0,1-2.14,5.54,8.38,8.38,0,0,1-3.85,3,15.77,15.77,0,0,1-5.8.94q-3.33,0-6.14-.12c-1.87-.09-3.63-.2-5.28-.34l1.38-2.64,4.54.1c1.64,0,3.47.05,5.5.05a9.35,9.35,0,0,0,5.44-1.4,7.88,7.88,0,0,0,2.9-4.7,36,36,0,0,0,.88-8.95,36,36,0,0,0-.88-8.95,8,8,0,0,0-2.9-4.73,9.28,9.28,0,0,0-5.44-1.43c-2,0-3.81,0-5.43,0s-3.17.09-4.66.16l-1.33-2.65c1.65-.13,3.42-.24,5.3-.33S119.47,135.46,121.66,135.46Zm-8.33.46V171h-3.09V135.92Z"/><path class="cls-3" d="M144.82,135.92V171h-3.09V135.92Z"/><path class="cls-3" d="M164.65,135.46a15.44,15.44,0,0,1,6,1,5.94,5.94,0,0,1,3.21,3.28,17.36,17.36,0,0,1,1,6.54,18.09,18.09,0,0,1-1,6.56,5.71,5.71,0,0,1-3.12,3.25,15.22,15.22,0,0,1-5.83.92c-1.3,0-2.53,0-3.71-.08s-2.24-.12-3.21-.2-1.79-.18-2.47-.28a13.1,13.1,0,0,1-1.4-.26l.14-2.08H164.6a11.51,11.51,0,0,0,4.16-.71A4,4,0,0,0,171,151a13.31,13.31,0,0,0,.67-4.75,13.53,13.53,0,0,0-.67-4.84,4,4,0,0,0-2.21-2.34,10.8,10.8,0,0,0-4.16-.66c-2.54,0-4.72,0-6.56,0s-3.08.06-3.71.13l-.67-2.65c1.17-.13,2.27-.24,3.28-.3s2.13-.11,3.33-.13S162.94,135.46,164.65,135.46Zm-7.9.46V171h-3.09V135.92Z"/><path class="cls-3" d="M249.72,133.88v33.67c0,.95-.43,1.43-1.3,1.43H245a1.54,1.54,0,0,1-.94-.28,2.11,2.11,0,0,1-.6-.84l-12.74-26.65c-.29-.65-.61-1.35-1-2.11a21.68,21.68,0,0,1-.87-2.11H228c0,.68.06,1.37.07,2.08s0,1.43,0,2.14V169H225V135.31c0-.95.45-1.43,1.35-1.43h3.24a1.56,1.56,0,0,1,.94.28,2.11,2.11,0,0,1,.6.84l12.35,26,1.11,2.29c.39.82.75,1.63,1.11,2.44h1c0-.84,0-1.69-.05-2.54s0-1.68,0-2.49V133.88Z"/></svg>