<?xml version="1.0" encoding="utf-8"?>
<!-- Generator: Adobe Illustrator 25.0.0, SVG Export Plug-In . SVG Version: 6.00 Build 0)  -->
<svg version="1.1" id="Layer_1" xmlns="http://www.w3.org/2000/svg" xmlns:xlink="http://www.w3.org/1999/xlink" x="0px" y="0px"
	 viewBox="0 0 221 44" style="enable-background:new 0 0 221 44;" xml:space="preserve">
<style type="text/css">
	.st0{fill:none;}
	.st1{display:none;fill:#ACCE77;}
	.st2{display:none;fill:#FFFFFF;}
	.st3{display:none;}
	.st4{display:inline;fill:#FFFFFF;}
	.st5{display:inline;fill:#073577;}
	.st6{fill:none;stroke:#0D4467;stroke-width:4;stroke-linecap:round;stroke-linejoin:round;stroke-miterlimit:10;}
	.st7{display:none;fill:#95C122;}
	.st8{display:none;fill:#C3CFDB;}
	.st9{display:none;fill:none;stroke:#000000;stroke-width:10;stroke-linejoin:round;stroke-miterlimit:10;}
	.st10{display:inline;fill:#ACCE77;}
	.st11{display:inline;opacity:0.7;}
	.st12{display:inline;}
	.st13{fill:#ACCE77;}
	.st14{fill:#A4D44F;}
</style>
<rect x="-38" y="-130" class="st0" width="300" height="300"/>
<rect x="-38" y="-128" class="st1" width="300" height="300"/>
<rect x="-38" y="-130" class="st2" width="300" height="300"/>
<g>
	<g class="st3">
		<path class="st4" d="M51.35,54.16c0.65,0,0.97,0.35,0.97,1.04l1.46,33h-2l-1.41-32.3h-1.12L39.13,84.3
			c-0.13,0.46-0.44,0.69-0.93,0.69h-2.53c-0.49,0-0.81-0.23-0.97-0.69L24.62,55.89H23.5l-1.41,32.3h-2l1.41-33
			c0.03-0.69,0.37-1.04,1.02-1.04h2.77c0.49,0,0.79,0.23,0.93,0.69l8.52,23.87c0.29,0.76,0.56,1.52,0.8,2.29
			c0.24,0.77,0.51,1.54,0.8,2.29h1.17c0.26-0.79,0.53-1.57,0.8-2.34c0.28-0.77,0.54-1.55,0.8-2.34l8.47-23.77
			c0.16-0.46,0.49-0.69,0.97-0.69H51.35z"/>
		<path class="st4" d="M66.54,54.16c1.59,0,3.19,0,4.8,0c1.61,0,3.2,0.02,4.8,0.05c1.59,0.03,3.17,0.08,4.72,0.15l-0.1,1.53H66.88
			c-1.1,0-2,0.35-2.68,1.06s-1.02,1.63-1.02,2.79v22.88c0,1.15,0.34,2.08,1.02,2.79s1.57,1.06,2.68,1.06h13.88l0.1,1.53
			c-1.56,0.07-3.13,0.12-4.72,0.15c-1.59,0.03-3.19,0.05-4.8,0.05c-1.61,0-3.21,0-4.8,0c-1.59,0-2.88-0.49-3.87-1.48
			c-0.99-0.99-1.49-2.24-1.49-3.75V59.39c0-1.54,0.49-2.8,1.49-3.77C63.66,54.65,64.95,54.16,66.54,54.16z M62.01,69.16l16.75,0.05
			v1.63l-16.75,0.05V69.16z"/>
		<path class="st4" d="M98.53,53.72c2.3,0,4.24,0.3,5.82,0.91c1.57,0.61,2.85,1.59,3.82,2.96c0.97,1.37,1.69,3.16,2.14,5.38
			c0.45,2.22,0.68,4.96,0.68,8.21c0,3.22-0.23,5.95-0.68,8.19c-0.45,2.24-1.17,4.04-2.14,5.4c-0.97,1.37-2.25,2.35-3.82,2.96
			c-1.57,0.61-3.51,0.91-5.82,0.91c-2.18,0-4.2-0.04-6.06-0.12c-1.87-0.08-3.63-0.19-5.28-0.32l0.92-1.53
			c1.53,0.03,3.13,0.07,4.82,0.1c1.69,0.03,3.55,0.05,5.6,0.05c2.56,0,4.6-0.49,6.11-1.48s2.6-2.62,3.26-4.91
			c0.66-2.29,1-5.37,1-9.25c0-3.88-0.33-6.96-1-9.25c-0.67-2.29-1.75-3.92-3.26-4.91s-3.55-1.48-6.11-1.48
			c-2.04,0-3.91,0.02-5.6,0.05c-1.69,0.03-3.33,0.07-4.92,0.1l-0.83-1.53c1.66-0.13,3.42-0.24,5.31-0.32
			C94.37,53.76,96.38,53.72,98.53,53.72z M89.18,54.16v34.03h-2V54.16H89.18z"/>
		<path class="st4" d="M120.09,54.16v34.03h-2V54.16H120.09z"/>
		<path class="st4" d="M139.47,53.77c2.47,0,4.42,0.3,5.87,0.89s2.49,1.63,3.14,3.11c0.65,1.48,0.97,3.55,0.97,6.21
			c0,2.63-0.32,4.69-0.95,6.17s-1.67,2.51-3.12,3.08c-1.44,0.58-3.38,0.86-5.82,0.86c-1.3,0-2.52-0.01-3.68-0.02
			c-1.15-0.02-2.2-0.06-3.14-0.12s-1.74-0.12-2.39-0.15c-0.65-0.03-1.1-0.08-1.36-0.15l0.15-1.33c1.62,0,3.32,0,5.09,0
			c1.77,0,3.51,0,5.23,0c1.95-0.03,3.5-0.28,4.65-0.74c1.15-0.46,1.99-1.3,2.51-2.51c0.52-1.22,0.78-2.93,0.78-5.13
			c0-2.24-0.26-3.95-0.78-5.15c-0.52-1.2-1.36-2.04-2.51-2.52c-1.15-0.48-2.7-0.71-4.65-0.71c-2.53,0-4.72,0.02-6.55,0.05
			c-1.83,0.03-3.08,0.08-3.72,0.15l-0.68-1.58c1.17-0.13,2.26-0.22,3.29-0.27s2.13-0.08,3.33-0.1S137.78,53.77,139.47,53.77z
			 M130.51,54.16v34.03h-2V54.16H130.51z"/>
	</g>
</g>
<g>
	<g class="st3">
		<path class="st4" d="M214.88,25.41v33.04c0,0.66-0.33,0.99-0.97,0.99h-2.63c-0.26,0-0.48-0.06-0.66-0.17
			c-0.18-0.11-0.33-0.3-0.46-0.57l-14.51-27.82c-0.29-0.56-0.6-1.15-0.92-1.78c-0.32-0.62-0.62-1.25-0.88-1.87h-1.12
			c0.03,0.62,0.05,1.25,0.05,1.87c0,0.62,0,1.23,0,1.83v28.51h-2V26.39c0-0.66,0.32-0.99,0.97-0.99h2.43c0.29,0,0.53,0.06,0.71,0.17
			c0.18,0.12,0.33,0.3,0.46,0.57l14.12,27.18c0.36,0.66,0.72,1.35,1.09,2.07c0.37,0.72,0.74,1.45,1.1,2.17h1.22
			c0-0.79,0-1.57,0-2.34s0-1.54,0-2.29V25.41H214.88z"/>
	</g>
</g>
<g id="svgg" class="st3">
	<path id="path0" class="st5" d="M4.12-78.7c-5.29,3.02-16.68,14.42-16.43,16.45c0.56,4.4,3.63,3.17,12.86-5.16l8.35-7.54
		l11.05,9.98L31-54.99l-0.2,9.32l-0.2,9.32l-3.1,0.2c-5.35,0.35-5.91-0.3-6.21-7.24c-0.36-8.36-1.46-9.28-11.23-9.28
		c-9.8,0-10.86,0.99-10.57,9.94l0.21,6.38h2.57h2.57l0.37-5.33L5.59-47h4.41h4.41l0.39,5.66c0.61,8.86,2.67,10.65,12.2,10.65
		c9.72,0,10.58-1.22,10.58-14.98c0-12.06,0.74-10.78-13.79-23.81C10.9-81.05,9.44-81.73,4.12-78.7"/>
</g>
<path class="st6" d="M145.22,15.23l13.55-10.17c1.57-1.19,3.88-1.12,5.34,0.18l17.61,15.63c0.76,0.67,1.19,1.6,1.19,2.56v12.26
	c0,1.98-1.78,3.59-3.97,3.59h-6.17c-2.19,0-3.97-1.61-3.97-3.59v-5.74c0-1.98-1.78-3.59-3.97-3.59h-6.62
	c-2.19,0-3.97,1.61-3.97,3.59v6.1"/>
<path class="st7" d="M89.17-77.17L89.17-77.17c-0.89,1.03-0.77,2.58,0.25,3.47l0.09,0.08c1.03,0.89,2.58,0.78,3.46-0.25h0
	c0.89-1.03,0.77-2.58-0.25-3.47l-0.09-0.08C91.61-78.31,90.06-78.2,89.17-77.17z"/>
<polygon class="st8" points="132.26,38.03 142.37,27.91 152.46,38 "/>
<polyline class="st9" points="147.76,147 147.76,111.25 163,125.5 "/>
<g>
	<g class="st3">
		<path class="st10" d="M46.97,96.14c0.21,0,0.31,0.15,0.31,0.44l0.18,5.9h-0.78l-0.16-5.43H46.4l-0.84,4.25
			c-0.04,0.25-0.15,0.38-0.33,0.38h-0.58c-0.19,0-0.3-0.13-0.35-0.38l-0.84-4.25h-0.12l-0.14,5.43h-0.78l0.18-5.9
			c0.01-0.29,0.11-0.44,0.31-0.44h0.82c0.17,0,0.28,0.13,0.33,0.38l0.69,3.47c0.03,0.15,0.06,0.29,0.08,0.44
			c0.02,0.15,0.04,0.29,0.07,0.44h0.1c0.03-0.15,0.05-0.29,0.07-0.44c0.02-0.15,0.05-0.3,0.07-0.45l0.69-3.46
			c0.04-0.25,0.15-0.38,0.33-0.38H46.97z"/>
		<path class="st10" d="M49.11,96.12c0.23,0,0.46,0,0.7,0c0.24,0,0.47,0.01,0.7,0.02c0.23,0.01,0.45,0.03,0.65,0.05l-0.04,0.85
			h-1.77c-0.12,0-0.21,0.04-0.27,0.13c-0.06,0.09-0.09,0.22-0.09,0.4v3.45c0,0.18,0.03,0.32,0.09,0.4c0.06,0.09,0.15,0.13,0.27,0.13
			h1.77l0.04,0.85c-0.21,0.02-0.42,0.04-0.65,0.05c-0.23,0.01-0.46,0.02-0.7,0.02c-0.24,0-0.47,0-0.7,0c-0.28,0-0.5-0.11-0.67-0.33
			c-0.17-0.22-0.25-0.51-0.26-0.88v-3.97c0-0.37,0.09-0.66,0.26-0.88C48.6,96.23,48.83,96.12,49.11,96.12z M48.29,98.74h2.58v0.85
			h-2.58V98.74z"/>
		<path class="st10" d="M53.48,96.05c0.34,0,0.63,0.05,0.87,0.16s0.43,0.29,0.58,0.53c0.15,0.25,0.25,0.58,0.32,1s0.1,0.94,0.1,1.56
			c0,0.62-0.03,1.14-0.1,1.56c-0.07,0.42-0.17,0.75-0.32,1c-0.15,0.25-0.34,0.43-0.58,0.53s-0.53,0.16-0.87,0.16
			c-0.33,0-0.63-0.01-0.91-0.02c-0.28-0.02-0.54-0.04-0.79-0.06l0.34-0.88c0.17,0.01,0.37,0.02,0.6,0.03
			c0.23,0.01,0.48,0.01,0.76,0.01c0.25,0,0.45-0.07,0.6-0.21c0.15-0.14,0.25-0.38,0.31-0.72c0.06-0.34,0.09-0.81,0.09-1.41
			c0-0.6-0.03-1.07-0.09-1.41c-0.06-0.34-0.16-0.58-0.31-0.72c-0.15-0.14-0.34-0.21-0.6-0.21c-0.27,0-0.51,0-0.72,0.01
			c-0.21,0.01-0.42,0.01-0.62,0.01l-0.36-0.84c0.25-0.02,0.51-0.04,0.79-0.06S53.15,96.05,53.48,96.05z M52.6,96.14v6.34h-0.82
			v-6.34H52.6z"/>
		<path class="st10" d="M56.85,96.14v6.34h-0.82v-6.34H56.85z"/>
		<path class="st10" d="M59.34,96.05c0.4,0,0.71,0.06,0.93,0.18c0.23,0.12,0.39,0.32,0.49,0.62s0.15,0.7,0.15,1.24
			c0,0.53-0.05,0.95-0.14,1.24s-0.25,0.5-0.46,0.62s-0.5,0.17-0.86,0.17c-0.2,0-0.38-0.01-0.57-0.03s-0.35-0.04-0.5-0.07
			c-0.16-0.03-0.29-0.06-0.4-0.1c-0.11-0.03-0.19-0.06-0.23-0.09l0.02-0.62c0.25,0,0.5,0,0.77,0s0.53,0,0.79,0
			c0.19-0.01,0.34-0.04,0.45-0.1s0.19-0.17,0.24-0.33c0.05-0.16,0.07-0.39,0.07-0.69c0-0.3-0.02-0.53-0.07-0.69
			s-0.12-0.28-0.24-0.34s-0.26-0.1-0.45-0.1c-0.38,0-0.71,0-0.99,0.01c-0.27,0.01-0.46,0.01-0.56,0.03l-0.09-0.85
			c0.17-0.02,0.34-0.04,0.49-0.05c0.15-0.01,0.32-0.02,0.5-0.02S59.09,96.05,59.34,96.05z M58.51,96.14v6.34h-0.82v-6.34H58.51z"/>
		<path class="st10" d="M63.47,96.14c0.07,0,0.13,0.03,0.18,0.08c0.05,0.05,0.09,0.13,0.11,0.22l1.37,6.04H64.3l-1.03-4.89
			c-0.02-0.1-0.04-0.2-0.05-0.29c-0.02-0.1-0.03-0.19-0.05-0.28h-0.18c-0.01,0.09-0.03,0.19-0.04,0.28c-0.02,0.1-0.04,0.2-0.06,0.29
			l-1.03,4.89h-0.84l1.37-6.04c0.02-0.09,0.05-0.17,0.11-0.22c0.05-0.06,0.12-0.08,0.19-0.08H63.47z M64.23,99.76v0.9h-2.32v-0.9
			H64.23z"/>
		<path class="st10" d="M69.17,96.14v5.91c0,0.29-0.1,0.43-0.3,0.43h-0.56c-0.09,0-0.16-0.03-0.21-0.09
			c-0.05-0.06-0.09-0.15-0.13-0.26l-1.37-3.82c-0.05-0.13-0.1-0.28-0.15-0.45s-0.09-0.32-0.12-0.46h-0.08
			c0.01,0.15,0.02,0.31,0.02,0.46c0.01,0.16,0.01,0.31,0.01,0.46v4.15h-0.79v-5.91c0-0.29,0.1-0.43,0.3-0.43h0.54
			c0.09,0,0.16,0.03,0.21,0.09c0.05,0.06,0.09,0.15,0.13,0.26l1.33,3.72c0.05,0.13,0.11,0.29,0.16,0.46
			c0.05,0.17,0.11,0.34,0.15,0.51h0.1c-0.01-0.18-0.02-0.35-0.02-0.52c-0.01-0.17-0.01-0.34-0.01-0.5v-4.01H69.17z"/>
	</g>
</g>
<g class="st3">
	<g class="st11">
		<g>
			<g>
				<path d="M184.22-47.74c6.81,0,10.29,3.12,10.43,9.37l5.87,125.32h-25.87l-5.22-115.37h-4.13l-28.04,90.38c-1.3,5.34-5,8-11.09,8
					h-19.13c-6.23,0-10.07-2.67-11.52-8L67.48-28.42h-4.13L58.57,86.95H32.7l5.87-125.32c0.29-6.25,3.77-9.37,10.43-9.37h27.17
					c5.79,0,9.42,2.67,10.87,8l23.04,73.79c1.01,3.12,1.85,6.25,2.5,9.37c0.65,3.12,1.41,6.25,2.28,9.37h3.26
					c0.87-3.12,1.66-6.25,2.39-9.37c0.72-3.12,1.52-6.31,2.39-9.57l23.04-73.59c1.3-5.33,5-8,11.09-8H184.22z"/>
			</g>
		</g>
	</g>
	<g class="st12">
		<g>
			<g>
				<path class="st13" d="M176.22-47.74c6.81,0,10.29,3.12,10.43,9.37l5.87,125.32h-25.87l-5.22-115.37h-4.13l-28.04,90.38
					c-1.3,5.34-5,8-11.09,8H99.04c-6.23,0-10.07-2.67-11.52-8L59.48-28.42h-4.13L50.57,86.95H24.7l5.87-125.32
					c0.29-6.25,3.77-9.37,10.43-9.37h27.17c5.79,0,9.42,2.67,10.87,8l23.04,73.79c1.01,3.12,1.85,6.25,2.5,9.37
					c0.65,3.12,1.41,6.25,2.28,9.37h3.26c0.87-3.12,1.66-6.25,2.39-9.37c0.72-3.12,1.52-6.31,2.39-9.57l23.04-73.59
					c1.3-5.33,5-8,11.09-8H176.22z"/>
			</g>
		</g>
	</g>
</g>
<g>
	<g>
		<path class="st14" d="M35.31,5.92c1.15,0,1.72,0.63,1.72,1.88l1.39,33.21h-4.2L33.01,9.63h-1l-7.36,25.89
			c-0.25,1.02-0.86,1.53-1.82,1.53h-3.77c-0.99,0-1.62-0.51-1.91-1.53L9.79,9.63H8.84L7.69,41.01h-4.2L4.78,7.8
			c0.06-1.25,0.65-1.88,1.77-1.88h4.78c0.89,0,1.48,0.51,1.77,1.53l6.16,21.41c0.25,0.78,0.47,1.56,0.65,2.34
			c0.17,0.78,0.37,1.58,0.6,2.39h0.86c0.22-0.81,0.43-1.61,0.62-2.39c0.19-0.78,0.4-1.59,0.62-2.44l6.16-21.31
			c0.25-1.02,0.86-1.53,1.82-1.53H35.31z"/>
		<path class="st14" d="M52.12,5.87c1.59,0,3.19,0,4.8,0c1.61,0,3.2,0.03,4.78,0.08s3.1,0.13,4.56,0.23l-0.19,3.51H52.84
			c-0.99,0-1.71,0.26-2.17,0.79c-0.46,0.53-0.69,1.38-0.69,2.57v20.85c0,1.19,0.23,2.05,0.69,2.59c0.46,0.54,1.19,0.81,2.17,0.81
			h13.23l0.19,3.46c-1.47,0.1-2.99,0.17-4.56,0.2c-1.58,0.03-3.17,0.06-4.78,0.08c-1.61,0.02-3.21,0.03-4.8,0.03
			c-1.94,0-3.48-0.55-4.61-1.65c-1.13-1.1-1.71-2.58-1.74-4.45V11.97c0.03-1.9,0.61-3.39,1.74-4.48
			C48.64,6.41,50.18,5.87,52.12,5.87z M46.63,20.67h17.58v3.61H46.63V20.67z"/>
		<path class="st14" d="M84.56,5.46c2.36,0,4.35,0.31,6,0.92c1.64,0.61,2.96,1.61,3.97,3c1,1.39,1.74,3.24,2.2,5.54
			c0.46,2.31,0.69,5.15,0.69,8.54c0,3.39-0.23,6.24-0.69,8.54c-0.46,2.31-1.19,4.15-2.2,5.54c-1,1.39-2.33,2.39-3.97,3
			c-1.64,0.61-3.64,0.92-6,0.92c-2.26,0-4.36-0.04-6.28-0.13c-1.93-0.09-3.75-0.2-5.47-0.33l1.82-3.66
			c1.34,0.03,2.83,0.08,4.47,0.13c1.64,0.05,3.46,0.08,5.47,0.08c2.1,0,3.77-0.43,5.02-1.3c1.24-0.86,2.13-2.32,2.65-4.37
			c0.53-2.05,0.79-4.86,0.79-8.42s-0.26-6.37-0.79-8.42c-0.53-2.05-1.41-3.52-2.65-4.4c-1.24-0.88-2.91-1.32-5.02-1.32
			c-1.98,0-3.75,0.02-5.33,0.05c-1.58,0.03-3.11,0.07-4.61,0.1l-1.82-3.56c1.72-0.14,3.54-0.25,5.47-0.33
			C80.21,5.51,82.3,5.46,84.56,5.46z M77.02,5.92v35.09h-4.2V5.92H77.02z"/>
		<path class="st14" d="M108.74,5.92v35.09h-4.2V5.92H108.74z"/>
		<path class="st14" d="M128.37,5.46c2.64,0,4.74,0.32,6.28,0.97c1.54,0.64,2.65,1.75,3.32,3.33c0.67,1.58,1,3.81,1,6.69
			c0,2.88-0.33,5.12-0.98,6.71c-0.65,1.59-1.72,2.7-3.2,3.33c-1.48,0.63-3.46,0.94-5.95,0.94c-1.34,0-2.62-0.03-3.85-0.1
			c-1.23-0.07-2.35-0.16-3.37-0.28c-1.02-0.12-1.89-0.25-2.6-0.38c-0.72-0.13-1.22-0.25-1.5-0.36l0.14-2.75c1.69,0,3.44,0,5.26,0
			s3.61,0,5.4,0c1.59-0.03,2.86-0.25,3.8-0.64c0.94-0.39,1.61-1.1,2.01-2.14c0.4-1.03,0.6-2.48,0.6-4.35c0-1.9-0.2-3.36-0.6-4.37
			c-0.4-1.02-1.07-1.73-2.01-2.14s-2.21-0.61-3.8-0.61c-2.61,0-4.87,0.02-6.76,0.05c-1.9,0.03-3.18,0.08-3.85,0.15l-0.67-3.61
			c1.21-0.14,2.34-0.24,3.39-0.31c1.05-0.07,2.2-0.11,3.44-0.13S126.62,5.46,128.37,5.46z M121.26,5.92v35.09h-4.21V5.92H121.26z"/>
	</g>
</g>
<g>
	<g>
		<path class="st14" d="M217.29,5.88V39.2c0,1.19-0.55,1.78-1.65,1.78h-4.17c-0.49,0-0.87-0.12-1.16-0.36
			c-0.29-0.24-0.53-0.59-0.73-1.07l-11.29-24.87c-0.29-0.68-0.63-1.44-1.02-2.29c-0.39-0.85-0.68-1.63-0.87-2.34h-0.78
			c0.06,0.75,0.11,1.51,0.15,2.29c0.03,0.78,0.05,1.56,0.05,2.34v26.29h-4.26V7.66c0-1.19,0.57-1.78,1.7-1.78h4.02
			c0.48,0,0.87,0.12,1.16,0.36c0.29,0.24,0.53,0.59,0.73,1.07l10.95,24.26c0.36,0.71,0.73,1.52,1.14,2.42
			c0.4,0.9,0.78,1.79,1.14,2.67h0.82c-0.03-0.92-0.07-1.81-0.1-2.7c-0.03-0.88-0.05-1.76-0.05-2.65V5.88H217.29z"/>
	</g>
</g>
</svg>
