<?xml version="1.0" encoding="utf-8"?>
<!-- Generator: Adobe Illustrator 25.0.0, SVG Export Plug-In . SVG Version: 6.00 Build 0)  -->
<svg version="1.1" id="Layer_1" xmlns="http://www.w3.org/2000/svg" xmlns:xlink="http://www.w3.org/1999/xlink" x="0px" y="0px"
	 viewBox="0 0 215 43" style="enable-background:new 0 0 215 43;" xml:space="preserve">
<style type="text/css">
	.st0{fill:none;}
	.st1{display:none;fill:#ACCE77;}
	.st2{display:none;}
	.st3{display:inline;fill:#FFFFFF;}
	.st4{display:inline;fill:#073577;}
	.st5{fill:none;stroke:#2C546B;stroke-width:3;stroke-linecap:round;stroke-linejoin:round;stroke-miterlimit:10;}
	.st6{display:none;fill:#95C122;}
	.st7{display:none;fill:#C3CFDB;}
	.st8{display:none;fill:none;stroke:#000000;stroke-width:10;stroke-linejoin:round;stroke-miterlimit:10;}
	.st9{display:inline;fill:#ACCE77;}
	.st10{display:inline;opacity:0.7;}
	.st11{display:inline;}
	.st12{fill:#ACCE77;}
	.st13{fill:#A3D755;}
</style>
<rect x="-39" y="-132" class="st0" width="300" height="300"/>
<rect x="-39" y="-132" class="st1" width="300" height="300"/>
<rect x="-39" y="-134" class="st0" width="300" height="300"/>
<g>
	<g class="st2">
		<path class="st3" d="M50.35,50.16c0.65,0,0.97,0.35,0.97,1.04l1.46,33h-2l-1.41-32.3h-1.12L38.13,80.3
			c-0.13,0.46-0.44,0.69-0.93,0.69h-2.53c-0.49,0-0.81-0.23-0.97-0.69L23.62,51.89H22.5l-1.41,32.3h-2l1.41-33
			c0.03-0.69,0.37-1.04,1.02-1.04h2.77c0.49,0,0.79,0.23,0.93,0.69l8.52,23.87c0.29,0.76,0.56,1.52,0.8,2.29
			c0.24,0.77,0.51,1.54,0.8,2.29h1.17c0.26-0.79,0.53-1.57,0.8-2.34c0.28-0.77,0.54-1.55,0.8-2.34l8.47-23.77
			c0.16-0.46,0.49-0.69,0.97-0.69H50.35z"/>
		<path class="st3" d="M65.54,50.16c1.59,0,3.19,0,4.8,0c1.61,0,3.2,0.02,4.8,0.05c1.59,0.03,3.17,0.08,4.72,0.15l-0.1,1.53H65.88
			c-1.1,0-2,0.35-2.68,1.06s-1.02,1.63-1.02,2.79v22.88c0,1.15,0.34,2.08,1.02,2.79s1.57,1.06,2.68,1.06h13.88l0.1,1.53
			c-1.56,0.07-3.13,0.12-4.72,0.15c-1.59,0.03-3.19,0.05-4.8,0.05c-1.61,0-3.21,0-4.8,0c-1.59,0-2.88-0.49-3.87-1.48
			c-0.99-0.99-1.49-2.24-1.49-3.75V55.39c0-1.54,0.49-2.8,1.49-3.77C62.66,50.65,63.95,50.16,65.54,50.16z M61.01,65.16l16.75,0.05
			v1.63l-16.75,0.05V65.16z"/>
		<path class="st3" d="M97.53,49.72c2.3,0,4.24,0.3,5.82,0.91c1.57,0.61,2.85,1.59,3.82,2.96c0.97,1.37,1.69,3.16,2.14,5.38
			c0.45,2.22,0.68,4.96,0.68,8.21c0,3.22-0.23,5.95-0.68,8.19c-0.45,2.24-1.17,4.04-2.14,5.4c-0.97,1.37-2.25,2.35-3.82,2.96
			c-1.57,0.61-3.51,0.91-5.82,0.91c-2.18,0-4.2-0.04-6.06-0.12c-1.87-0.08-3.63-0.19-5.28-0.32l0.92-1.53
			c1.53,0.03,3.13,0.07,4.82,0.1c1.69,0.03,3.55,0.05,5.6,0.05c2.56,0,4.6-0.49,6.11-1.48s2.6-2.62,3.26-4.91
			c0.66-2.29,1-5.37,1-9.25c0-3.88-0.33-6.96-1-9.25c-0.67-2.29-1.75-3.92-3.26-4.91s-3.55-1.48-6.11-1.48
			c-2.04,0-3.91,0.02-5.6,0.05c-1.69,0.03-3.33,0.07-4.92,0.1l-0.83-1.53c1.66-0.13,3.42-0.24,5.31-0.32
			C93.37,49.76,95.38,49.72,97.53,49.72z M88.18,50.16v34.03h-2V50.16H88.18z"/>
		<path class="st3" d="M119.09,50.16v34.03h-2V50.16H119.09z"/>
		<path class="st3" d="M138.47,49.77c2.47,0,4.42,0.3,5.87,0.89s2.49,1.63,3.14,3.11c0.65,1.48,0.97,3.55,0.97,6.21
			c0,2.63-0.32,4.69-0.95,6.17s-1.67,2.51-3.12,3.08c-1.44,0.58-3.38,0.86-5.82,0.86c-1.3,0-2.52-0.01-3.68-0.02
			c-1.15-0.02-2.2-0.06-3.14-0.12s-1.74-0.12-2.39-0.15c-0.65-0.03-1.1-0.08-1.36-0.15l0.15-1.33c1.62,0,3.32,0,5.09,0
			c1.77,0,3.51,0,5.23,0c1.95-0.03,3.5-0.28,4.65-0.74c1.15-0.46,1.99-1.3,2.51-2.51c0.52-1.22,0.78-2.93,0.78-5.13
			c0-2.24-0.26-3.95-0.78-5.15c-0.52-1.2-1.36-2.04-2.51-2.52c-1.15-0.48-2.7-0.71-4.65-0.71c-2.53,0-4.72,0.02-6.55,0.05
			c-1.83,0.03-3.08,0.08-3.72,0.15l-0.68-1.58c1.17-0.13,2.26-0.22,3.29-0.27s2.13-0.08,3.33-0.1S136.78,49.77,138.47,49.77z
			 M129.51,50.16v34.03h-2V50.16H129.51z"/>
	</g>
</g>
<g>
	<g class="st2">
		<path class="st3" d="M213.88,21.41v33.04c0,0.66-0.33,0.99-0.97,0.99h-2.63c-0.26,0-0.48-0.06-0.66-0.17
			c-0.18-0.11-0.33-0.3-0.46-0.57l-14.51-27.82c-0.29-0.56-0.6-1.15-0.92-1.78c-0.32-0.62-0.62-1.25-0.88-1.87h-1.12
			c0.03,0.62,0.05,1.25,0.05,1.87c0,0.62,0,1.23,0,1.83v28.51h-2V22.39c0-0.66,0.32-0.99,0.97-0.99h2.43c0.29,0,0.53,0.06,0.71,0.17
			c0.18,0.12,0.33,0.3,0.46,0.57l14.12,27.18c0.36,0.66,0.72,1.35,1.09,2.07c0.37,0.72,0.74,1.45,1.1,2.17h1.22
			c0-0.79,0-1.57,0-2.34s0-1.54,0-2.29V21.41H213.88z"/>
	</g>
</g>
<g id="svgg" class="st2">
	<path id="path0" class="st4" d="M3.12-82.7c-5.29,3.02-16.68,14.42-16.43,16.45c0.56,4.4,3.63,3.17,12.86-5.16l8.35-7.54
		l11.05,9.98L30-58.99l-0.2,9.32l-0.2,9.32l-3.1,0.2c-5.35,0.35-5.91-0.3-6.21-7.24c-0.36-8.36-1.46-9.28-11.23-9.28
		c-9.8,0-10.86,0.99-10.57,9.94l0.21,6.38h2.57h2.57l0.37-5.33L4.59-51h4.41h4.41l0.39,5.66c0.61,8.86,2.67,10.65,12.2,10.65
		c9.72,0,10.58-1.22,10.58-14.98c0-12.06,0.74-10.78-13.79-23.81C9.9-85.05,8.44-85.73,3.12-82.7"/>
</g>
<path class="st5" d="M143.56,13.23l12.02-10.17c1.39-1.19,3.44-1.12,4.74,0.18l15.62,15.63c0.67,0.67,1.05,1.6,1.05,2.56v12.26
	c0,1.98-1.58,3.59-3.52,3.59h-5.47c-1.94,0-3.52-1.61-3.52-3.59v-5.74c0-1.98-1.58-3.59-3.52-3.59h-5.87
	c-1.94,0-3.52,1.61-3.52,3.59v6.1"/>
<path class="st6" d="M88.17-81.17L88.17-81.17c-0.89,1.03-0.77,2.58,0.25,3.47l0.09,0.08c1.03,0.89,2.58,0.78,3.46-0.25h0
	c0.89-1.03,0.77-2.58-0.25-3.47l-0.09-0.08C90.61-82.31,89.06-82.2,88.17-81.17z"/>
<polygon class="st7" points="131.26,34.03 141.37,23.91 151.46,34 "/>
<polyline class="st8" points="146.76,143 146.76,107.25 162,121.5 "/>
<g>
	<g class="st2">
		<path class="st9" d="M45.97,92.14c0.21,0,0.31,0.15,0.31,0.44l0.18,5.9h-0.78l-0.16-5.43H45.4l-0.84,4.25
			c-0.04,0.25-0.15,0.38-0.33,0.38h-0.58c-0.19,0-0.3-0.13-0.35-0.38l-0.84-4.25h-0.12l-0.14,5.43h-0.78l0.18-5.9
			c0.01-0.29,0.11-0.44,0.31-0.44h0.82c0.17,0,0.28,0.13,0.33,0.38l0.69,3.47c0.03,0.15,0.06,0.29,0.08,0.44
			c0.02,0.15,0.04,0.29,0.07,0.44h0.1c0.03-0.15,0.05-0.29,0.07-0.44c0.02-0.15,0.05-0.3,0.07-0.45l0.69-3.46
			c0.04-0.25,0.15-0.38,0.33-0.38H45.97z"/>
		<path class="st9" d="M48.11,92.12c0.23,0,0.46,0,0.7,0c0.24,0,0.47,0.01,0.7,0.02c0.23,0.01,0.45,0.03,0.65,0.05l-0.04,0.85h-1.77
			c-0.12,0-0.21,0.04-0.27,0.13c-0.06,0.09-0.09,0.22-0.09,0.4v3.45c0,0.18,0.03,0.32,0.09,0.4c0.06,0.09,0.15,0.13,0.27,0.13h1.77
			l0.04,0.85c-0.21,0.02-0.42,0.04-0.65,0.05c-0.23,0.01-0.46,0.02-0.7,0.02c-0.24,0-0.47,0-0.7,0c-0.28,0-0.5-0.11-0.67-0.33
			c-0.17-0.22-0.25-0.51-0.26-0.88v-3.97c0-0.37,0.09-0.66,0.26-0.88C47.6,92.23,47.83,92.12,48.11,92.12z M47.29,94.74h2.58v0.85
			h-2.58V94.74z"/>
		<path class="st9" d="M52.48,92.05c0.34,0,0.63,0.05,0.87,0.16s0.43,0.29,0.58,0.53c0.15,0.25,0.25,0.58,0.32,1s0.1,0.94,0.1,1.56
			c0,0.62-0.03,1.14-0.1,1.56c-0.07,0.42-0.17,0.75-0.32,1c-0.15,0.25-0.34,0.43-0.58,0.53s-0.53,0.16-0.87,0.16
			c-0.33,0-0.63-0.01-0.91-0.02c-0.28-0.02-0.54-0.04-0.79-0.06l0.34-0.88c0.17,0.01,0.37,0.02,0.6,0.03
			c0.23,0.01,0.48,0.01,0.76,0.01c0.25,0,0.45-0.07,0.6-0.21c0.15-0.14,0.25-0.38,0.31-0.72c0.06-0.34,0.09-0.81,0.09-1.41
			c0-0.6-0.03-1.07-0.09-1.41c-0.06-0.34-0.16-0.58-0.31-0.72c-0.15-0.14-0.34-0.21-0.6-0.21c-0.27,0-0.51,0-0.72,0.01
			c-0.21,0.01-0.42,0.01-0.62,0.01l-0.36-0.84c0.25-0.02,0.51-0.04,0.79-0.06S52.15,92.05,52.48,92.05z M51.6,92.14v6.34h-0.82
			v-6.34H51.6z"/>
		<path class="st9" d="M55.85,92.14v6.34h-0.82v-6.34H55.85z"/>
		<path class="st9" d="M58.34,92.05c0.4,0,0.71,0.06,0.93,0.18c0.23,0.12,0.39,0.32,0.49,0.62s0.15,0.7,0.15,1.24
			c0,0.53-0.05,0.95-0.14,1.24s-0.25,0.5-0.46,0.62s-0.5,0.17-0.86,0.17c-0.2,0-0.38-0.01-0.57-0.03s-0.35-0.04-0.5-0.07
			c-0.16-0.03-0.29-0.06-0.4-0.1c-0.11-0.03-0.19-0.06-0.23-0.09l0.02-0.62c0.25,0,0.5,0,0.77,0s0.53,0,0.79,0
			c0.19-0.01,0.34-0.04,0.45-0.1s0.19-0.17,0.24-0.33c0.05-0.16,0.07-0.39,0.07-0.69c0-0.3-0.02-0.53-0.07-0.69
			s-0.12-0.28-0.24-0.34s-0.26-0.1-0.45-0.1c-0.38,0-0.71,0-0.99,0.01c-0.27,0.01-0.46,0.01-0.56,0.03l-0.09-0.85
			c0.17-0.02,0.34-0.04,0.49-0.05c0.15-0.01,0.32-0.02,0.5-0.02S58.09,92.05,58.34,92.05z M57.51,92.14v6.34h-0.82v-6.34H57.51z"/>
		<path class="st9" d="M62.47,92.14c0.07,0,0.13,0.03,0.18,0.08c0.05,0.05,0.09,0.13,0.11,0.22l1.37,6.04H63.3l-1.03-4.89
			c-0.02-0.1-0.04-0.2-0.05-0.29c-0.02-0.1-0.03-0.19-0.05-0.28h-0.18c-0.01,0.09-0.03,0.19-0.04,0.28c-0.02,0.1-0.04,0.2-0.06,0.29
			l-1.03,4.89h-0.84l1.37-6.04c0.02-0.09,0.05-0.17,0.11-0.22c0.05-0.06,0.12-0.08,0.19-0.08H62.47z M63.23,95.76v0.9h-2.32v-0.9
			H63.23z"/>
		<path class="st9" d="M68.17,92.14v5.91c0,0.29-0.1,0.43-0.3,0.43h-0.56c-0.09,0-0.16-0.03-0.21-0.09
			c-0.05-0.06-0.09-0.15-0.13-0.26l-1.37-3.82c-0.05-0.13-0.1-0.28-0.15-0.45s-0.09-0.32-0.12-0.46h-0.08
			c0.01,0.15,0.02,0.31,0.02,0.46c0.01,0.16,0.01,0.31,0.01,0.46v4.15h-0.79v-5.91c0-0.29,0.1-0.43,0.3-0.43h0.54
			c0.09,0,0.16,0.03,0.21,0.09c0.05,0.06,0.09,0.15,0.13,0.26l1.33,3.72c0.05,0.13,0.11,0.29,0.16,0.46
			c0.05,0.17,0.11,0.34,0.15,0.51h0.1c-0.01-0.18-0.02-0.35-0.02-0.52c-0.01-0.17-0.01-0.34-0.01-0.5v-4.01H68.17z"/>
	</g>
</g>
<g class="st2">
	<g class="st10">
		<g>
			<g>
				<path d="M183.22-51.74c6.81,0,10.29,3.12,10.43,9.37l5.87,125.32h-25.87l-5.22-115.37h-4.13l-28.04,90.38c-1.3,5.34-5,8-11.09,8
					h-19.13c-6.23,0-10.07-2.67-11.52-8L66.48-32.42h-4.13L57.57,82.95H31.7l5.87-125.32c0.29-6.25,3.77-9.37,10.43-9.37h27.17
					c5.79,0,9.42,2.67,10.87,8l23.04,73.79c1.01,3.12,1.85,6.25,2.5,9.37c0.65,3.12,1.41,6.25,2.28,9.37h3.26
					c0.87-3.12,1.66-6.25,2.39-9.37c0.72-3.12,1.52-6.31,2.39-9.57l23.04-73.59c1.3-5.33,5-8,11.09-8H183.22z"/>
			</g>
		</g>
	</g>
	<g class="st11">
		<g>
			<g>
				<path class="st12" d="M175.22-51.74c6.81,0,10.29,3.12,10.43,9.37l5.87,125.32h-25.87l-5.22-115.37h-4.13l-28.04,90.38
					c-1.3,5.34-5,8-11.09,8H98.04c-6.23,0-10.07-2.67-11.52-8L58.48-32.42h-4.13L49.57,82.95H23.7l5.87-125.32
					c0.29-6.25,3.77-9.37,10.43-9.37h27.17c5.79,0,9.42,2.67,10.87,8l23.04,73.79c1.01,3.12,1.85,6.25,2.5,9.37
					c0.65,3.12,1.41,6.25,2.28,9.37h3.26c0.87-3.12,1.66-6.25,2.39-9.37c0.72-3.12,1.52-6.31,2.39-9.57l23.04-73.59
					c1.3-5.33,5-8,11.09-8H175.22z"/>
			</g>
		</g>
	</g>
</g>
<g>
	<g>
		<path class="st13" d="M33.86,3.92c0.89,0,1.33,0.49,1.33,1.48l1.43,33.62h-3.14L32.2,6.72h-1.05l-8.56,27.52
			c-0.19,0.75-0.65,1.12-1.38,1.12h-3.14c-0.73,0-1.21-0.37-1.43-1.12L8.13,6.72H7.09l-1.24,32.3H2.71L4.04,5.4
			C4.1,4.41,4.58,3.92,5.47,3.92h3.76c0.7,0,1.14,0.39,1.33,1.17l7.18,22.89c0.29,0.78,0.53,1.57,0.74,2.36
			c0.21,0.8,0.44,1.6,0.69,2.42h1c0.22-0.81,0.44-1.62,0.67-2.42c0.22-0.8,0.46-1.62,0.71-2.47l7.18-22.79
			c0.19-0.78,0.65-1.17,1.38-1.17H33.86z"/>
		<path class="st13" d="M50.27,3.87c1.55,0,3.12,0,4.71,0c1.58,0,3.16,0.03,4.73,0.08s3.1,0.13,4.59,0.23l-0.14,2.59H50.79
			c-1.05,0-1.85,0.31-2.4,0.92s-0.83,1.51-0.83,2.7v22.18c0,1.19,0.28,2.09,0.83,2.72c0.55,0.63,1.36,0.94,2.4,0.94h13.36l0.14,2.54
			c-1.49,0.1-3.02,0.17-4.59,0.2c-1.57,0.03-3.15,0.06-4.73,0.08c-1.59,0.02-3.16,0.03-4.71,0.03c-1.74,0-3.15-0.53-4.21-1.6
			C45,36.4,44.47,35,44.47,33.27V9.67c0-1.76,0.53-3.17,1.59-4.22C47.12,4.4,48.52,3.87,50.27,3.87z M45.27,19.03h16.98v2.7H45.27
			V19.03z"/>
		<path class="st13" d="M82.66,3.46c2.28,0,4.22,0.31,5.8,0.94c1.58,0.63,2.87,1.64,3.85,3.03c0.98,1.39,1.7,3.24,2.14,5.54
			c0.44,2.31,0.67,5.14,0.67,8.49s-0.22,6.19-0.67,8.49c-0.44,2.31-1.16,4.15-2.14,5.54c-0.98,1.39-2.27,2.4-3.85,3.03
			c-1.59,0.63-3.52,0.94-5.8,0.94c-2.22,0-4.27-0.04-6.14-0.13c-1.87-0.09-3.63-0.2-5.28-0.33l1.38-2.64
			c1.4,0.03,2.91,0.07,4.54,0.1c1.63,0.03,3.46,0.05,5.49,0.05c2.28,0,4.1-0.47,5.45-1.4c1.35-0.93,2.31-2.5,2.9-4.71
			c0.59-2.2,0.88-5.19,0.88-8.95s-0.29-6.75-0.88-8.95c-0.59-2.2-1.55-3.78-2.9-4.73c-1.35-0.95-3.16-1.42-5.45-1.42
			c-2,0-3.81,0.02-5.42,0.05c-1.62,0.03-3.17,0.08-4.66,0.15l-1.33-2.64c1.65-0.14,3.42-0.25,5.3-0.33
			C78.43,3.51,80.47,3.46,82.66,3.46z M74.33,3.92v35.09h-3.09V3.92H74.33z"/>
		<path class="st13" d="M105.82,3.92v35.09h-3.09V3.92H105.82z"/>
		<path class="st13" d="M125.65,3.46c2.5,0,4.5,0.32,5.99,0.97c1.49,0.64,2.56,1.74,3.21,3.28c0.65,1.54,0.97,3.72,0.97,6.54
			c0,2.81-0.32,5-0.95,6.56c-0.63,1.56-1.67,2.64-3.12,3.25c-1.44,0.61-3.38,0.92-5.83,0.92c-1.3,0-2.54-0.03-3.71-0.08
			c-1.17-0.05-2.24-0.12-3.21-0.2c-0.97-0.08-1.79-0.18-2.47-0.28c-0.68-0.1-1.15-0.19-1.4-0.25l0.14-2.09c1.65,0,3.35,0,5.11,0
			c1.76,0,3.5,0,5.21,0c1.74-0.03,3.13-0.27,4.16-0.71c1.03-0.44,1.77-1.23,2.21-2.37c0.44-1.14,0.67-2.72,0.67-4.76
			c0-2.1-0.22-3.71-0.67-4.83c-0.44-1.12-1.18-1.9-2.21-2.34c-1.03-0.44-2.42-0.66-4.16-0.66c-2.54,0-4.72,0.01-6.56,0.03
			c-1.84,0.02-3.08,0.06-3.71,0.13l-0.67-2.64c1.17-0.14,2.27-0.24,3.28-0.31c1.01-0.07,2.12-0.11,3.33-0.13
			C122.48,3.47,123.94,3.46,125.65,3.46z M117.75,3.92v35.09h-3.09V3.92H117.75z"/>
	</g>
</g>
<g>
	<g>
		<path class="st13" d="M210.72,1.88v33.67c0,0.95-0.43,1.42-1.3,1.42h-3.38c-0.39,0-0.7-0.09-0.94-0.28s-0.44-0.47-0.6-0.84
			L191.76,9.21c-0.29-0.64-0.61-1.35-0.96-2.11c-0.35-0.76-0.64-1.47-0.87-2.11h-0.92c0.03,0.68,0.06,1.37,0.07,2.09
			c0.02,0.71,0.02,1.42,0.02,2.14v27.77h-3.14V3.31c0-0.95,0.45-1.42,1.35-1.42h3.23c0.39,0,0.7,0.09,0.94,0.28
			c0.24,0.19,0.44,0.47,0.6,0.84l12.35,26.04c0.35,0.71,0.72,1.47,1.11,2.29c0.39,0.81,0.75,1.63,1.11,2.44h1.01
			c0-0.85-0.02-1.7-0.05-2.54c-0.03-0.85-0.05-1.68-0.05-2.49V1.88H210.72z"/>
	</g>
</g>
</svg>
